<?xml version="1.0" standalone="no"?><!DOCTYPE svg PUBLIC "-//W3C//DTD SVG 1.1//EN" "http://www.w3.org/Graphics/SVG/1.1/DTD/svg11.dtd"><svg t="1563947147580" class="icon" viewBox="0 0 1024 1024" version="1.1" xmlns="http://www.w3.org/2000/svg" p-id="16719" xmlns:xlink="http://www.w3.org/1999/xlink" width="25" height="20"><defs><style type="text/css"></style></defs><path d="M904.32 453.952c-12.736-12.736-33.408-12.736-46.144 0l-346.176 346.176-346.176-346.176c-12.736-12.736-33.408-12.736-46.144 0l-46.144 46.144c-12.736 12.736-12.736 33.408 0 46.144l415.36 415.36c12.736 12.736 33.408 12.736 46.144 0l415.36-415.36c12.736-12.736 12.736-33.408 0-46.144l-46.080-46.144zM488.896 570.048c12.736 12.736 33.408 12.736 46.144 0l415.36-415.36c12.736-12.736 12.736-33.408 0-46.144l-46.079-46.208c-12.736-12.736-33.408-12.736-46.144 0l-346.176 346.176-346.176-346.176c-12.736-12.736-33.408-12.736-46.144 0l-46.144 46.144c-12.736 12.736-12.736 33.408 0 46.144l415.36 415.424z" p-id="16720" fill="#00c9fd"></path></svg>